<svg xmlns="http://www.w3.org/2000/svg" viewBox="214 36 573 573" width="32" height="32">
<rect x="214" y="36" width="573" height="573" rx="115" fill="#ffffff"/>
<path fill="#000000" opacity="1" stroke="none" d="
M332.000153,239.627975 
	C355.987396,239.639633 379.474640,239.681122 402.961761,239.638382 
	C407.829803,239.629532 412.592072,240.197617 417.273804,241.455902 
	C435.966187,246.479691 445.611755,259.810425 444.581360,279.104401 
	C444.474945,281.097076 444.491119,283.098389 444.507874,285.095245 
	C444.658752,303.061188 443.381866,306.290070 431.010010,318.835114 
	C431.493652,319.257416 431.903015,319.794128 432.445160,320.062073 
	C447.792603,327.647064 453.091217,340.880585 453.181152,357.002045 
	C453.212677,362.653564 453.273956,368.286560 452.392822,373.934692 
	C450.180664,388.115021 442.479126,397.586548 428.966217,402.367645 
	C421.670074,404.949127 414.071655,406.141296 406.416718,406.156799 
	C344.283966,406.282532 282.150818,406.215576 220.018021,406.328918 
	C215.851440,406.336517 214.603683,404.903229 214.611481,400.832367 
	C214.711029,348.860657 214.730820,296.888489 214.576050,244.917053 
	C214.561874,240.155060 216.583832,239.541840 220.560776,239.553482 
	C257.540314,239.661819 294.520294,239.623611 332.000153,239.627975 
M352.500000,369.897888 
	C366.647675,369.850800 380.795715,369.845062 394.942871,369.732605 
	C399.448944,369.696777 403.594757,368.459229 406.145477,364.380341 
	C413.429077,352.733246 406.376312,338.538605 392.851654,338.465546 
	C349.074982,338.229004 305.296234,338.394043 261.518524,338.303619 
	C257.869202,338.296082 256.936401,339.964569 256.974060,343.163422 
	C257.052368,349.820526 256.960754,356.479370 256.979584,363.137390 
	C256.998444,369.810516 257.066620,369.888916 263.611176,369.891602 
	C292.907440,369.903656 322.203735,369.896423 352.500000,369.897888 
M336.499969,303.688354 
	C352.644592,303.691040 368.789246,303.696228 384.933868,303.695648 
	C399.931305,303.695129 403.638611,299.467529 401.731995,284.554016 
	C401.710907,284.389038 401.705566,284.222015 401.683838,284.057159 
	C401.174866,280.191162 399.002106,277.681427 395.341522,276.498657 
	C392.470093,275.570892 389.500366,275.322144 386.476105,275.327271 
	C367.502106,275.359406 348.528015,275.330017 329.553955,275.327087 
	C307.251129,275.323669 284.947449,275.425323 262.646149,275.242004 
	C258.253448,275.205902 256.685059,276.629028 256.915894,280.980103 
	C257.197662,286.291290 256.959137,291.628784 256.997223,296.954529 
	C257.045258,303.667847 257.067749,303.686981 263.598145,303.688934 
	C287.565399,303.696075 311.532684,303.689240 336.499969,303.688354 
z"/>
<path fill="#000000" opacity="1" stroke="none" d="
M763.965942,402.226868 
	C756.349304,405.094452 748.818970,406.262726 741.094238,406.262726 
	C690.772888,406.262787 640.451599,406.265930 590.130249,406.229919 
	C583.784973,406.225372 577.509094,405.489075 571.388000,403.707672 
	C552.283081,398.147705 542.239380,385.627747 542.032349,365.809906 
	C541.745239,338.319794 541.684937,310.819580 542.095703,283.332153 
	C542.508240,255.727097 559.007019,239.729691 586.554749,239.684204 
	C639.208496,239.597244 691.863281,239.506607 744.515930,239.772812 
	C760.119507,239.851700 773.691406,245.036285 781.942932,259.515350 
	C785.736633,266.172272 787.169434,273.580658 787.200684,281.131317 
	C787.318726,309.623901 787.342773,338.117981 787.177612,366.610199 
	C787.081726,383.148224 779.787537,395.314331 763.965942,402.226868 
M673.500000,369.897278 
	C690.496033,369.900085 707.492065,369.902496 724.488098,369.905823 
	C738.447144,369.908539 742.860413,365.586151 742.867981,351.846863 
	C742.878662,332.351562 742.880188,312.856262 742.862610,293.360962 
	C742.850708,280.177521 738.626526,275.959778 725.558899,275.964172 
	C688.401245,275.976685 651.243530,275.969147 614.085876,276.000702 
	C609.091797,276.004944 604.070129,275.895081 599.110596,276.362274 
	C592.605713,276.975067 589.690308,279.912170 588.223267,286.207275 
	C587.614136,288.820770 587.333679,291.441864 587.337524,294.126587 
	C587.365540,313.455261 587.323669,332.784088 587.359863,352.112732 
	C587.384644,365.365570 591.878662,369.891754 605.016113,369.906250 
	C627.510742,369.931091 650.005371,369.903015 673.500000,369.897278 
z"/>
<path fill="#000000" opacity="1" stroke="none" d="
M486.162354,317.139465 
	C496.696594,308.304169 506.963226,299.703430 517.132080,291.184631 
	C519.161011,292.907715 518.892883,294.495667 518.851074,295.938446 
	C517.857788,330.240417 518.647217,364.549438 518.422546,398.854156 
	C518.374390,406.213593 518.380920,406.215576 510.978180,406.219971 
	C500.318573,406.226318 489.653656,406.033905 479.001801,406.323425 
	C474.279205,406.451752 472.978149,404.589783 473.004150,400.180847 
	C473.134857,378.029907 473.130615,355.877197 472.980957,333.726440 
	C472.953613,329.679443 474.084564,326.758453 477.461609,324.411835 
	C480.456696,322.330688 483.097565,319.739868 486.162354,317.139465 
z"/>
<path fill="#000000" opacity="1" stroke="none" d="
M473.012207,264.000000 
	C473.029999,257.010620 473.140747,250.519547 473.025299,244.032501 
	C472.963989,240.586487 474.317413,239.447723 477.781738,239.502655 
	C489.759491,239.692551 501.743866,239.720535 513.721252,239.529434 
	C517.725952,239.465546 519.221313,240.986816 518.793884,244.795395 
	C518.664062,245.952271 518.302917,247.172684 518.526672,248.265945 
	C520.932556,260.018921 515.031128,267.204376 506.075378,273.793915 
	C496.189056,281.068207 487.259430,289.641388 477.891388,297.623352 
	C476.803131,298.550629 475.895142,299.919647 473.011169,299.481262 
	C473.011169,287.934052 473.011169,276.217041 473.012207,264.000000 
z"/>
</svg>
